<mxfile host="app.diagrams.net" modified="2021-11-04T08:45:31.682Z" agent="5.0 (Macintosh; Intel Mac OS X 10_15_7) AppleWebKit/537.36 (KHTML, like Gecko) Chrome/95.0.4638.69 Safari/537.36" etag="s4cWQLi3zhfJAibNSDbu" version="15.6.8" type="github">
  <diagram id="Q3Wh9snWczGZMSibfi6r" name="Page-2">
    <mxGraphModel dx="2066" dy="1105" grid="1" gridSize="10" guides="1" tooltips="1" connect="1" arrows="1" fold="1" page="1" pageScale="1" pageWidth="850" pageHeight="1100" math="0" shadow="0">
      <root>
        <mxCell id="2fiJ519T6nmdmr8UrQeU-0" />
        <mxCell id="2fiJ519T6nmdmr8UrQeU-1" parent="2fiJ519T6nmdmr8UrQeU-0" />
        <mxCell id="rs34QfIVt6KUZWH8GQP0-1" value="" style="rounded=0;whiteSpace=wrap;html=1;fillColor=#CCCCCC;" vertex="1" parent="2fiJ519T6nmdmr8UrQeU-1">
          <mxGeometry x="20" y="10" width="190" height="530" as="geometry" />
        </mxCell>
        <mxCell id="2fiJ519T6nmdmr8UrQeU-2" value="" style="rounded=0;whiteSpace=wrap;html=1;fillColor=#d5e8d4;strokeColor=#82b366;" parent="2fiJ519T6nmdmr8UrQeU-1" vertex="1">
          <mxGeometry x="710" y="10" width="130" height="530" as="geometry" />
        </mxCell>
        <mxCell id="2fiJ519T6nmdmr8UrQeU-3" value="" style="rounded=0;whiteSpace=wrap;html=1;fillColor=#dae8fc;strokeColor=#6c8ebf;" parent="2fiJ519T6nmdmr8UrQeU-1" vertex="1">
          <mxGeometry x="210" y="10" width="500" height="530" as="geometry" />
        </mxCell>
        <mxCell id="2fiJ519T6nmdmr8UrQeU-4" value=":Duke" style="shape=umlLifeline;perimeter=lifelinePerimeter;container=1;collapsible=0;recursiveResize=0;rounded=0;shadow=0;strokeWidth=1;fillColor=#E6E6E6;strokeColor=#666666;fontColor=#000000;" parent="2fiJ519T6nmdmr8UrQeU-1" vertex="1">
          <mxGeometry x="60" y="70" width="100" height="470" as="geometry" />
        </mxCell>
        <mxCell id="2fiJ519T6nmdmr8UrQeU-5" value="" style="points=[];perimeter=orthogonalPerimeter;rounded=0;shadow=0;strokeWidth=1;strokeColor=#FF6666;" parent="2fiJ519T6nmdmr8UrQeU-4" vertex="1">
          <mxGeometry x="45" y="60" width="10" height="390" as="geometry" />
        </mxCell>
        <mxCell id="2fiJ519T6nmdmr8UrQeU-6" value="&quot;delete 1/2&quot;" style="verticalAlign=bottom;startArrow=oval;endArrow=block;startSize=8;shadow=0;strokeWidth=1;labelBackgroundColor=none;" parent="2fiJ519T6nmdmr8UrQeU-4" target="2fiJ519T6nmdmr8UrQeU-5" edge="1">
          <mxGeometry x="0.2632" relative="1" as="geometry">
            <mxPoint x="-50" y="60" as="sourcePoint" />
            <Array as="points">
              <mxPoint x="-10" y="60" />
            </Array>
            <mxPoint as="offset" />
          </mxGeometry>
        </mxCell>
        <mxCell id="2fiJ519T6nmdmr8UrQeU-7" value=":Parser" style="shape=umlLifeline;perimeter=lifelinePerimeter;container=1;collapsible=0;recursiveResize=0;rounded=0;shadow=0;strokeWidth=1;fillColor=#0050ef;strokeColor=#001DBC;fontColor=#ffffff;" parent="2fiJ519T6nmdmr8UrQeU-1" vertex="1">
          <mxGeometry x="270" y="70" width="100" height="470" as="geometry" />
        </mxCell>
        <mxCell id="2fiJ519T6nmdmr8UrQeU-8" value="" style="points=[];perimeter=orthogonalPerimeter;rounded=0;shadow=0;strokeWidth=1;strokeColor=#FF6666;fillColor=default;fontColor=default;" parent="2fiJ519T6nmdmr8UrQeU-7" vertex="1">
          <mxGeometry x="45" y="80" width="10" height="200" as="geometry" />
        </mxCell>
        <mxCell id="2fiJ519T6nmdmr8UrQeU-9" value="" style="verticalAlign=bottom;endArrow=open;dashed=1;endSize=8;exitX=0.1;exitY=1;shadow=0;strokeWidth=1;exitDx=0;exitDy=0;exitPerimeter=0;" parent="2fiJ519T6nmdmr8UrQeU-1" source="2fiJ519T6nmdmr8UrQeU-8" target="2fiJ519T6nmdmr8UrQeU-5" edge="1">
          <mxGeometry relative="1" as="geometry">
            <mxPoint x="245" y="236" as="targetPoint" />
            <Array as="points">
              <mxPoint x="240" y="350" />
            </Array>
          </mxGeometry>
        </mxCell>
        <mxCell id="2fiJ519T6nmdmr8UrQeU-10" value="getCommand(&quot;delete 1/2&#39;)&quot;" style="verticalAlign=bottom;endArrow=block;entryX=0;entryY=0;shadow=0;strokeWidth=1;labelBackgroundColor=none;" parent="2fiJ519T6nmdmr8UrQeU-1" source="2fiJ519T6nmdmr8UrQeU-5" target="2fiJ519T6nmdmr8UrQeU-8" edge="1">
          <mxGeometry relative="1" as="geometry">
            <mxPoint x="245" y="160" as="sourcePoint" />
          </mxGeometry>
        </mxCell>
        <mxCell id="2fiJ519T6nmdmr8UrQeU-11" value="new deleteCommand(&quot;delete 1/2&quot;)" style="verticalAlign=bottom;endArrow=block;shadow=0;strokeWidth=1;entryX=0;entryY=0.051;entryDx=0;entryDy=0;entryPerimeter=0;labelBackgroundColor=none;fontColor=default;" parent="2fiJ519T6nmdmr8UrQeU-1" source="2fiJ519T6nmdmr8UrQeU-8" target="2fiJ519T6nmdmr8UrQeU-13" edge="1">
          <mxGeometry x="-0.0256" relative="1" as="geometry">
            <mxPoint x="210" y="200" as="sourcePoint" />
            <mxPoint x="230" y="210" as="targetPoint" />
            <Array as="points">
              <mxPoint x="410" y="190" />
              <mxPoint x="500" y="190" />
            </Array>
            <mxPoint as="offset" />
          </mxGeometry>
        </mxCell>
        <mxCell id="2fiJ519T6nmdmr8UrQeU-12" value="" style="verticalAlign=bottom;endArrow=open;dashed=1;endSize=8;shadow=0;strokeWidth=1;exitX=0.45;exitY=1;exitDx=0;exitDy=0;exitPerimeter=0;" parent="2fiJ519T6nmdmr8UrQeU-1" source="2fiJ519T6nmdmr8UrQeU-14" target="2fiJ519T6nmdmr8UrQeU-8" edge="1">
          <mxGeometry relative="1" as="geometry">
            <mxPoint x="210" y="257" as="targetPoint" />
            <mxPoint x="230" y="286" as="sourcePoint" />
          </mxGeometry>
        </mxCell>
        <mxCell id="2fiJ519T6nmdmr8UrQeU-13" value=":DeleteCommand" style="shape=umlLifeline;perimeter=lifelinePerimeter;container=1;collapsible=0;recursiveResize=0;rounded=0;shadow=0;strokeWidth=1;fillColor=#0050ef;strokeColor=#001DBC;fontColor=#ffffff;" parent="2fiJ519T6nmdmr8UrQeU-1" vertex="1">
          <mxGeometry x="520" y="170" width="100" height="370" as="geometry" />
        </mxCell>
        <mxCell id="2fiJ519T6nmdmr8UrQeU-14" value="" style="points=[];perimeter=orthogonalPerimeter;rounded=0;shadow=0;strokeWidth=1;strokeColor=#FF6666;" parent="2fiJ519T6nmdmr8UrQeU-13" vertex="1">
          <mxGeometry x="45" y="40" width="10" height="120" as="geometry" />
        </mxCell>
        <mxCell id="2fiJ519T6nmdmr8UrQeU-15" value="" style="points=[];perimeter=orthogonalPerimeter;rounded=0;shadow=0;strokeWidth=1;strokeColor=#FF6666;" parent="2fiJ519T6nmdmr8UrQeU-13" vertex="1">
          <mxGeometry x="50" y="70" width="10" height="20" as="geometry" />
        </mxCell>
        <mxCell id="2fiJ519T6nmdmr8UrQeU-16" value="" style="endArrow=classic;html=1;rounded=0;entryX=1;entryY=0.033;entryDx=0;entryDy=0;entryPerimeter=0;" parent="2fiJ519T6nmdmr8UrQeU-13" target="2fiJ519T6nmdmr8UrQeU-15" edge="1">
          <mxGeometry width="50" height="50" relative="1" as="geometry">
            <mxPoint x="55" y="50" as="sourcePoint" />
            <mxPoint x="70" y="70" as="targetPoint" />
            <Array as="points">
              <mxPoint x="80" y="50" />
              <mxPoint x="80" y="60" />
            </Array>
          </mxGeometry>
        </mxCell>
        <mxCell id="2fiJ519T6nmdmr8UrQeU-17" value="" style="points=[];perimeter=orthogonalPerimeter;rounded=0;shadow=0;strokeWidth=1;strokeColor=#FF6666;" parent="2fiJ519T6nmdmr8UrQeU-13" vertex="1">
          <mxGeometry x="45" y="210" width="10" height="110" as="geometry" />
        </mxCell>
        <mxCell id="2fiJ519T6nmdmr8UrQeU-18" value="&lt;span style=&quot;color: rgb(0 , 0 , 0) ; font-family: &amp;#34;helvetica&amp;#34; ; font-size: 11px ; font-style: normal ; font-weight: 400 ; letter-spacing: normal ; text-align: center ; text-indent: 0px ; text-transform: none ; word-spacing: 0px ; display: inline ; float: none&quot;&gt;getPersonIndex(&#39;1/2&#39;)&lt;/span&gt;" style="text;whiteSpace=wrap;html=1;" parent="2fiJ519T6nmdmr8UrQeU-1" vertex="1">
          <mxGeometry x="600" y="210" width="180" height="30" as="geometry" />
        </mxCell>
        <mxCell id="2fiJ519T6nmdmr8UrQeU-19" value="" style="points=[];perimeter=orthogonalPerimeter;rounded=0;shadow=0;strokeWidth=1;strokeColor=#FF6666;" parent="2fiJ519T6nmdmr8UrQeU-1" vertex="1">
          <mxGeometry x="570" y="290" width="10" height="20" as="geometry" />
        </mxCell>
        <mxCell id="2fiJ519T6nmdmr8UrQeU-20" value="" style="endArrow=classic;html=1;rounded=0;entryX=1;entryY=0.033;entryDx=0;entryDy=0;entryPerimeter=0;" parent="2fiJ519T6nmdmr8UrQeU-1" target="2fiJ519T6nmdmr8UrQeU-19" edge="1">
          <mxGeometry width="50" height="50" relative="1" as="geometry">
            <mxPoint x="575" y="270" as="sourcePoint" />
            <mxPoint x="40" y="120" as="targetPoint" />
            <Array as="points">
              <mxPoint x="600" y="270" />
              <mxPoint x="600" y="280" />
            </Array>
          </mxGeometry>
        </mxCell>
        <mxCell id="2fiJ519T6nmdmr8UrQeU-21" value="&lt;span style=&quot;color: rgb(0 , 0 , 0) ; font-family: &amp;#34;helvetica&amp;#34; ; font-size: 11px ; font-style: normal ; font-weight: 400 ; letter-spacing: normal ; text-align: center ; text-indent: 0px ; text-transform: none ; word-spacing: 0px ; display: inline ; float: none&quot;&gt;getFoodIndex(&#39;1/2&#39;)&lt;/span&gt;" style="text;whiteSpace=wrap;html=1;" parent="2fiJ519T6nmdmr8UrQeU-1" vertex="1">
          <mxGeometry x="600" y="260" width="180" height="30" as="geometry" />
        </mxCell>
        <mxCell id="2fiJ519T6nmdmr8UrQeU-22" value="execute()" style="verticalAlign=bottom;endArrow=block;shadow=0;strokeWidth=1;entryX=0;entryY=0;entryDx=0;entryDy=0;entryPerimeter=0;labelBackgroundColor=none;" parent="2fiJ519T6nmdmr8UrQeU-1" source="2fiJ519T6nmdmr8UrQeU-5" target="2fiJ519T6nmdmr8UrQeU-17" edge="1">
          <mxGeometry x="0.2222" relative="1" as="geometry">
            <mxPoint x="120" y="380" as="sourcePoint" />
            <mxPoint x="560" y="380" as="targetPoint" />
            <Array as="points">
              <mxPoint x="220" y="380" />
            </Array>
            <mxPoint as="offset" />
          </mxGeometry>
        </mxCell>
        <mxCell id="2fiJ519T6nmdmr8UrQeU-23" value="" style="points=[];perimeter=orthogonalPerimeter;rounded=0;shadow=0;strokeWidth=1;strokeColor=#FF6666;" parent="2fiJ519T6nmdmr8UrQeU-1" vertex="1">
          <mxGeometry x="570" y="410" width="10" height="50" as="geometry" />
        </mxCell>
        <mxCell id="2fiJ519T6nmdmr8UrQeU-24" value="" style="endArrow=classic;html=1;rounded=0;entryX=1;entryY=0.033;entryDx=0;entryDy=0;entryPerimeter=0;" parent="2fiJ519T6nmdmr8UrQeU-1" target="2fiJ519T6nmdmr8UrQeU-23" edge="1">
          <mxGeometry width="50" height="50" relative="1" as="geometry">
            <mxPoint x="575" y="390" as="sourcePoint" />
            <mxPoint x="40" y="240" as="targetPoint" />
            <Array as="points">
              <mxPoint x="600" y="390" />
              <mxPoint x="600" y="400" />
            </Array>
          </mxGeometry>
        </mxCell>
        <mxCell id="2fiJ519T6nmdmr8UrQeU-25" value="&lt;span style=&quot;color: rgb(0 , 0 , 0) ; font-family: &amp;#34;helvetica&amp;#34; ; font-size: 11px ; font-style: normal ; font-weight: 400 ; letter-spacing: normal ; text-align: center ; text-indent: 0px ; text-transform: none ; word-spacing: 0px ; display: inline ; float: none&quot;&gt;deleteOrder()&lt;/span&gt;" style="text;whiteSpace=wrap;html=1;" parent="2fiJ519T6nmdmr8UrQeU-1" vertex="1">
          <mxGeometry x="600" y="380" width="180" height="30" as="geometry" />
        </mxCell>
        <mxCell id="2fiJ519T6nmdmr8UrQeU-26" value="" style="verticalAlign=bottom;endArrow=open;dashed=1;endSize=8;shadow=0;strokeWidth=1;exitX=0.45;exitY=1;exitDx=0;exitDy=0;exitPerimeter=0;" parent="2fiJ519T6nmdmr8UrQeU-1" edge="1">
          <mxGeometry relative="1" as="geometry">
            <mxPoint x="115" y="490" as="targetPoint" />
            <mxPoint x="564.5" y="490" as="sourcePoint" />
          </mxGeometry>
        </mxCell>
        <mxCell id="2fiJ519T6nmdmr8UrQeU-27" value="" style="endArrow=classic;html=1;rounded=0;entryX=0;entryY=0.033;entryDx=0;entryDy=0;entryPerimeter=0;" parent="2fiJ519T6nmdmr8UrQeU-1" target="2fiJ519T6nmdmr8UrQeU-29" edge="1">
          <mxGeometry width="50" height="50" relative="1" as="geometry">
            <mxPoint x="580" y="424" as="sourcePoint" />
            <mxPoint x="730" y="424" as="targetPoint" />
            <Array as="points">
              <mxPoint x="610" y="424" />
              <mxPoint x="630" y="424" />
            </Array>
          </mxGeometry>
        </mxCell>
        <mxCell id="2fiJ519T6nmdmr8UrQeU-28" value=":Manager" style="shape=umlLifeline;perimeter=lifelinePerimeter;container=1;collapsible=0;recursiveResize=0;rounded=0;shadow=0;strokeWidth=1;fillColor=#60a917;strokeColor=#2D7600;fontColor=#ffffff;" parent="2fiJ519T6nmdmr8UrQeU-1" vertex="1">
          <mxGeometry x="720" y="70" width="110" height="470" as="geometry" />
        </mxCell>
        <mxCell id="2fiJ519T6nmdmr8UrQeU-29" value="" style="points=[];perimeter=orthogonalPerimeter;rounded=0;shadow=0;strokeWidth=1;strokeColor=#FF6666;" parent="2fiJ519T6nmdmr8UrQeU-28" vertex="1">
          <mxGeometry x="50" y="354" width="10" height="30" as="geometry" />
        </mxCell>
        <mxCell id="2fiJ519T6nmdmr8UrQeU-30" value="&lt;b&gt;&lt;font style=&quot;font-size: 13px&quot;&gt;Logical&amp;nbsp;&lt;/font&gt;&lt;/b&gt;" style="text;html=1;strokeColor=none;fillColor=none;align=center;verticalAlign=middle;whiteSpace=wrap;rounded=0;" parent="2fiJ519T6nmdmr8UrQeU-1" vertex="1">
          <mxGeometry x="430" y="10" width="60" height="30" as="geometry" />
        </mxCell>
        <mxCell id="2fiJ519T6nmdmr8UrQeU-31" value="&lt;b&gt;&lt;font style=&quot;font-size: 13px&quot;&gt;Manager&lt;/font&gt;&lt;/b&gt;" style="text;html=1;strokeColor=none;fillColor=none;align=center;verticalAlign=middle;whiteSpace=wrap;rounded=0;" parent="2fiJ519T6nmdmr8UrQeU-1" vertex="1">
          <mxGeometry x="745" y="10" width="60" height="30" as="geometry" />
        </mxCell>
        <mxCell id="2fiJ519T6nmdmr8UrQeU-32" value="" style="verticalAlign=bottom;endArrow=open;dashed=1;endSize=8;shadow=0;strokeWidth=1;" parent="2fiJ519T6nmdmr8UrQeU-1" edge="1">
          <mxGeometry relative="1" as="geometry">
            <mxPoint x="580" y="454" as="targetPoint" />
            <mxPoint x="770" y="454" as="sourcePoint" />
          </mxGeometry>
        </mxCell>
        <mxCell id="2fiJ519T6nmdmr8UrQeU-33" value="&lt;div style=&quot;text-align: center&quot;&gt;&lt;span style=&quot;font-size: 11px&quot;&gt;&lt;font face=&quot;helvetica&quot;&gt;deleteParticularOrder(2)&lt;/font&gt;&lt;/span&gt;&lt;/div&gt;" style="text;whiteSpace=wrap;html=1;fontSize=13;" parent="2fiJ519T6nmdmr8UrQeU-1" vertex="1">
          <mxGeometry x="620" y="400" width="190" height="30" as="geometry" />
        </mxCell>
        <mxCell id="rs34QfIVt6KUZWH8GQP0-2" value="&lt;b&gt;&lt;font style=&quot;font-size: 13px&quot;&gt;Main&lt;/font&gt;&lt;/b&gt;" style="text;html=1;strokeColor=none;fillColor=none;align=center;verticalAlign=middle;whiteSpace=wrap;rounded=0;" vertex="1" parent="2fiJ519T6nmdmr8UrQeU-1">
          <mxGeometry x="80" y="10" width="60" height="30" as="geometry" />
        </mxCell>
      </root>
    </mxGraphModel>
  </diagram>
</mxfile>
